<?xml version="1.0" encoding="UTF-8"?>
<svg width="24px" height="28px" viewBox="0 0 24 28" version="1.1" xmlns="http://www.w3.org/2000/svg" xmlns:xlink="http://www.w3.org/1999/xlink">
    <!-- Generator: Sketch 61.1 (89650) - https://sketch.com -->
    <title>excel-小</title>
    <desc>Created with Sketch.</desc>
    <defs>
        <polygon id="path-1" points="0 0 13.333976 0 13.333976 14.563968 0 14.563968"></polygon>
    </defs>
    <g id="页面-1" stroke="none" stroke-width="1" fill="none" fill-rule="evenodd">
        <g id="视频音频上传" transform="translate(-975.000000, -979.000000)">
            <g id="上传视频备份-3" transform="translate(935.000000, 914.000000)">
                <g id="编组-13" transform="translate(40.000000, 65.000000)">
                    <g id="excel-小">
                        <polygon id="矩形" fill="#DBDBDB" points="0 0 18.5454545 0 24 5.83333333 24 28 0 28"></polygon>
                        <polygon id="矩形" fill="#F1F1F1" points="18.5454545 0 24 5.83333333 18.6 5.83333333"></polygon>
                        <g id="编组" transform="translate(5.000000, 7.000000)">
                            <mask id="mask-2" fill="white">
                                <use xlink:href="#path-1"></use>
                            </mask>
                            <g id="Clip-2"></g>
                            <path d="M5.10290838,7.49315285 L6.999976,9.99998186 L6.06094656,9.99998186 L4.499976,7.87642067 L2.94345735,9.99998186 L1.999976,9.99998186 L3.89776692,7.49315285 L1.999976,4.99998186 L2.94345735,4.99998186 L4.499976,7.10030691 L6.14930998,4.99998186 L6.999976,4.99998186 L5.10290838,7.49315285 Z M10.000696,12.3457558 L12.4917617,12.3457558 L12.4917617,2.22830124 L10.000696,2.22830124 L10.000696,1.282048 L12.667336,1.282048 C13.035576,1.282048 13.333976,1.580528 13.333976,1.948688 L13.333976,12.615408 C13.333976,12.983648 13.035576,13.282048 12.667336,13.282048 L10.000696,13.282048 L10.000696,12.3457558 Z M0.794402703,1.94349158 L0.794402703,12.606036 L8.51291358,13.5922058 L8.51291358,0.957321806 L0.794402703,1.94349158 Z M8.953336,0.003408 C9.135576,-0.022752 9.304456,0.103728 9.330616,0.285968 C9.332856,0.301728 9.333976,0.317488 9.333976,0.333408 L9.333976,14.230688 C9.333976,14.414768 9.184696,14.563968 9.000616,14.563968 C8.985016,14.563968 8.969416,14.562928 8.953976,14.560688 L0.572696,13.364048 C0.244056,13.317248 -2.4e-05,13.035968 -2.4e-05,12.704048 L-2.4e-05,1.860048 C-2.4e-05,1.528208 0.244056,1.246848 0.572696,1.200048 L8.953336,0.003408 Z" id="Fill-1" fill="#FFFFFF" mask="url(#mask-2)"></path>
                        </g>
                    </g>
                </g>
            </g>
        </g>
    </g>
</svg>